<?xml version="1.0" standalone="no"?>
<!DOCTYPE svg PUBLIC "-//W3C//DTD SVG 20010904//EN"
 "http://www.w3.org/TR/2001/REC-SVG-20010904/DTD/svg10.dtd">
<svg version="1.0" xmlns="http://www.w3.org/2000/svg"
 width="338.000000pt" height="181.000000pt" viewBox="0 0 338.000000 181.000000"
 preserveAspectRatio="xMidYMid meet">

<g transform="translate(0.000000,181.000000) scale(0.100000,-0.100000)"
fill="#000000" stroke="none">
<path d="M1485 1374 c-128 -72 -136 -81 -151 -165 -8 -39 -12 -74 -9 -77 6 -6
2 -12 44 72 28 55 44 74 79 95 59 35 126 95 121 109 -3 8 -34 -5 -84 -34z"/>
<path d="M1276 978 c-3 -13 -6 -26 -6 -29 0 -3 24 2 53 12 28 10 61 19 72 20
11 1 0 5 -25 10 -75 13 -87 11 -94 -13z"/>
</g>
</svg>
